<svg width="80" height="80" viewBox="0 0 80 80" fill="none" xmlns="http://www.w3.org/2000/svg">
<g clip-path="url(#clip0_70_168)">
<path d="M68.2844 11.7156C60.7292 4.16082 50.6844 0 40 0C29.3156 0 19.2708 4.16082 11.7156 11.7156C4.16082 19.2708 0 29.3156 0 40C0 50.6844 4.16082 60.7292 11.7156 68.2844C19.2708 75.8392 29.3156 80 40 80C50.6844 80 60.7292 75.8392 68.2844 68.2844C75.8392 60.7292 80 50.6844 80 40C80 29.3156 75.8392 19.2708 68.2844 11.7156ZM40 75.0515C20.6725 75.0515 4.94845 59.3275 4.94845 40C4.94845 20.6725 20.6725 4.94845 40 4.94845C59.3275 4.94845 75.0515 20.6725 75.0515 40C75.0515 59.3275 59.3275 75.0515 40 75.0515Z" fill="white"/>
<path d="M29.866 55.5175L56.7321 39.9999L29.866 24.4824V55.5175Z" fill="white"/>
</g>
<defs>
<clipPath id="clip0_70_168">
<rect width="80" height="80" fill="white"/>
</clipPath>
</defs>
</svg>
